<?xml version="1.0" encoding="utf-8"?>
<!-- Generator: Adobe Illustrator 26.5.0, SVG Export Plug-In . SVG Version: 6.00 Build 0)  -->
<svg version="1.1" id="Camada_1" xmlns="http://www.w3.org/2000/svg" xmlns:xlink="http://www.w3.org/1999/xlink" x="0px" y="0px"
	 viewBox="0 0 1552.34 403.38" style="enable-background:new 0 0 1552.34 403.38;" xml:space="preserve">
<style type="text/css">
	
		.st0{clip-path:url(#SVGID_00000170975012146870265900000000788312433768925886_);fill:url(#SVGID_00000114068640430618999930000011152325422196725694_);}
	
		.st1{clip-path:url(#SVGID_00000047022074706117224490000002128002828814194336_);fill:url(#SVGID_00000056405053532299167540000017950961867316491431_);}
	
		.st2{clip-path:url(#SVGID_00000168818040170116075170000017844862636061343371_);fill:url(#SVGID_00000158748949680750386430000016994783170077437097_);}
	
		.st3{clip-path:url(#SVGID_00000074407107574549616350000005503396269132037511_);fill:url(#SVGID_00000094613942647156630330000004058511545825913780_);}
	
		.st4{clip-path:url(#SVGID_00000037656250006138810610000013846749216687175834_);fill:url(#SVGID_00000083790422127230741150000011203242687505808058_);}
	
		.st5{clip-path:url(#SVGID_00000032631934279469711980000010329255392359622018_);fill:url(#SVGID_00000143584555384697401060000005623127368607370133_);}
	
		.st6{clip-path:url(#SVGID_00000011743375570446471920000002152224845469573292_);fill:url(#SVGID_00000104678230114458019140000007058515246475228856_);}
	
		.st7{clip-path:url(#SVGID_00000158003002758505175830000017347889334126869937_);fill:url(#SVGID_00000009570872448098142680000013018703114342276282_);}
	
		.st8{clip-path:url(#SVGID_00000049908720874036243380000012921884796354917039_);fill:url(#SVGID_00000086680340233413190890000002080887026306465187_);}
	
		.st9{clip-path:url(#SVGID_00000125600163161676145890000010005567205152976287_);fill:url(#SVGID_00000115508653585865482250000012183570029391310503_);}
	
		.st10{clip-path:url(#SVGID_00000068664691789795737540000013920731157296061597_);fill:url(#SVGID_00000080923415317622308910000006055322205594092210_);}
	.st11{fill:#FFFFFF;}
	.st12{fill:#114571;}
	.st13{fill:#1D70B6;}
	.st14{fill:#1D70B7;}
</style>
<g>
	<g>
		<g>
			<defs>
				<path id="SVGID_1_" d="M468.76,181.47c0,29.5,23.91,53.41,53.41,53.41c29.5,0,53.41-23.91,53.41-53.41
					c0-29.49-23.91-53.41-53.41-53.41C492.67,128.06,468.76,151.98,468.76,181.47"/>
			</defs>
			<clipPath id="SVGID_00000137111867227722161510000015830988577890240442_">
				<use xlink:href="#SVGID_1_"  style="overflow:visible;"/>
			</clipPath>
			
				<radialGradient id="SVGID_00000054263554178764378240000014213654657907381907_" cx="-183.832" cy="741.6905" r="1" gradientTransform="matrix(53.4076 0 0 -53.4076 10340.2021 39761.9375)" gradientUnits="userSpaceOnUse">
				<stop  offset="0" style="stop-color:#0588CA"/>
				<stop  offset="0.4225" style="stop-color:#0D6BA3"/>
				<stop  offset="0.7805" style="stop-color:#13578A"/>
				<stop  offset="0.9944" style="stop-color:#155080"/>
				<stop  offset="1" style="stop-color:#155080"/>
			</radialGradient>
			
				<rect x="468.76" y="128.06" style="clip-path:url(#SVGID_00000137111867227722161510000015830988577890240442_);fill:url(#SVGID_00000054263554178764378240000014213654657907381907_);" width="106.82" height="106.81"/>
		</g>
		<g>
			<defs>
				<path id="SVGID_00000021094086671091600560000014661527914881403054_" d="M516.94,99.35c-30.15,25.39-51.51,46.75-76.9,76.9
					c-2.54,3.02-2.54,7.44,0,10.45c25.39,30.15,46.74,51.51,76.9,76.9c3.02,2.54,7.44,2.54,10.45,0
					c30.15-25.39,51.51-46.74,76.9-76.9c2.54-3.02,2.54-7.44,0-10.45c-25.39-30.15-46.74-51.51-76.9-76.9
					c-1.51-1.27-3.37-1.9-5.23-1.9C520.31,97.44,518.45,98.08,516.94,99.35"/>
			</defs>
			<clipPath id="SVGID_00000136408225375784913990000015750934310859473816_">
				<use xlink:href="#SVGID_00000021094086671091600560000014661527914881403054_"  style="overflow:visible;"/>
			</clipPath>
			
				<radialGradient id="SVGID_00000098204017646268165560000005713869209829001873_" cx="-183.832" cy="741.6905" r="1" gradientTransform="matrix(84.0268 0 0 -65.606 15969.4961 48794.6641)" gradientUnits="userSpaceOnUse">
				<stop  offset="0" style="stop-color:#FDEC49"/>
				<stop  offset="0.6149" style="stop-color:#F9C31C"/>
				<stop  offset="1" style="stop-color:#F7AE04"/>
			</radialGradient>
			
				<rect x="437.51" y="97.44" style="clip-path:url(#SVGID_00000136408225375784913990000015750934310859473816_);fill:url(#SVGID_00000098204017646268165560000005713869209829001873_);" width="169.32" height="168.69"/>
		</g>
		<g>
			<defs>
				<path id="SVGID_00000103259816938604713760000007054839676868233639_" d="M468.76,181.47c0,29.5,23.91,53.41,53.41,53.41
					c29.5,0,53.41-23.91,53.41-53.41c0-29.49-23.91-53.41-53.41-53.41C492.67,128.06,468.76,151.98,468.76,181.47"/>
			</defs>
			<clipPath id="SVGID_00000065058923721803938460000018397991575213410946_">
				<use xlink:href="#SVGID_00000103259816938604713760000007054839676868233639_"  style="overflow:visible;"/>
			</clipPath>
			
				<radialGradient id="SVGID_00000165914400301676260580000005174060057089158041_" cx="-183.832" cy="741.6905" r="1" gradientTransform="matrix(53.4076 0 0 -53.4076 10340.2021 39761.9375)" gradientUnits="userSpaceOnUse">
				<stop  offset="0" style="stop-color:#0588CA"/>
				<stop  offset="0.4225" style="stop-color:#0D6BA3"/>
				<stop  offset="0.7805" style="stop-color:#13578A"/>
				<stop  offset="0.9944" style="stop-color:#155080"/>
				<stop  offset="1" style="stop-color:#155080"/>
			</radialGradient>
			
				<rect x="468.76" y="128.06" style="clip-path:url(#SVGID_00000065058923721803938460000018397991575213410946_);fill:url(#SVGID_00000165914400301676260580000005174060057089158041_);" width="106.82" height="106.81"/>
		</g>
		<g>
			<defs>
				<path id="SVGID_00000081612431836009991000000000081525145217455277_" d="M116.66,174.5h38.46c11.5,0,17.77,7.11,17.77,15.89
					c0,10.03-6.69,15.89-17.77,15.89h-38.46V174.5z M116.66,119.1h37.21c10.03,0,16.31,6.06,16.31,14.63
					c0,8.99-6.27,14.63-16.31,14.63h-37.21V119.1z M86.98,92.97V232.4h75.67c26.76,0,40.55-16.72,40.55-37.83
					c0-17.35-11.71-31.77-26.76-34.07c13.17-2.72,24.04-14.63,24.04-31.98c0-18.6-13.59-35.54-40.13-35.54H86.98z"/>
			</defs>
			<clipPath id="SVGID_00000045578190483770497930000010456669584140318372_">
				<use xlink:href="#SVGID_00000081612431836009991000000000081525145217455277_"  style="overflow:visible;"/>
			</clipPath>
			
				<linearGradient id="SVGID_00000160150368060164678900000005825708713512025529_" gradientUnits="userSpaceOnUse" x1="-183.832" y1="741.6906" x2="-182.832" y2="741.6906" gradientTransform="matrix(0 -139.4247 -139.4247 0 103555.0938 -25398.332)">
				<stop  offset="0" style="stop-color:#037534"/>
				<stop  offset="0.3206" style="stop-color:#027F36"/>
				<stop  offset="0.9944" style="stop-color:#01913A"/>
				<stop  offset="1" style="stop-color:#01913A"/>
			</linearGradient>
			
				<rect x="86.98" y="92.97" style="clip-path:url(#SVGID_00000045578190483770497930000010456669584140318372_);fill:url(#SVGID_00000160150368060164678900000005825708713512025529_);" width="116.22" height="139.42"/>
		</g>
		<g>
			<defs>
				<rect id="SVGID_00000103970051544617809040000018109564092969688484_" x="332.11" y="92.97" width="26.55" height="139.43"/>
			</defs>
			<clipPath id="SVGID_00000150074394543569715160000001561620918376270999_">
				<use xlink:href="#SVGID_00000103970051544617809040000018109564092969688484_"  style="overflow:visible;"/>
			</clipPath>
			
				<linearGradient id="SVGID_00000095318104916598213610000002923396237680276869_" gradientUnits="userSpaceOnUse" x1="-183.832" y1="741.6906" x2="-182.832" y2="741.6906" gradientTransform="matrix(0 -139.4247 -139.4247 0 103755.375 -25398.332)">
				<stop  offset="0" style="stop-color:#037534"/>
				<stop  offset="0.3206" style="stop-color:#027F36"/>
				<stop  offset="0.9944" style="stop-color:#01913A"/>
				<stop  offset="1" style="stop-color:#01913A"/>
			</linearGradient>
			
				<rect x="332.11" y="92.97" style="clip-path:url(#SVGID_00000150074394543569715160000001561620918376270999_);fill:url(#SVGID_00000095318104916598213610000002923396237680276869_);" width="26.55" height="139.42"/>
		</g>
		<g>
			<defs>
				<path id="SVGID_00000139276733480867178150000010616828120619454618_" d="M613.91,144.4v-12.96h-26.55V232.4h26.55v-68.14
					c4.6-5.85,12.54-11.71,23-11.71c11.29,0,18.6,4.81,18.6,18.81v61.04h26.76v-71.28c0-19.65-10.66-32.19-33.03-32.19
					C632.94,128.93,620.39,136.87,613.91,144.4"/>
			</defs>
			<clipPath id="SVGID_00000096757789303465597840000013003828065615312047_">
				<use xlink:href="#SVGID_00000139276733480867178150000010616828120619454618_"  style="overflow:visible;"/>
			</clipPath>
			
				<linearGradient id="SVGID_00000052820860995913347460000003301919264290856332_" gradientUnits="userSpaceOnUse" x1="-183.832" y1="741.6905" x2="-182.832" y2="741.6905" gradientTransform="matrix(0 -103.4707 -103.4707 0 77378.0781 -18788.8379)">
				<stop  offset="0" style="stop-color:#037534"/>
				<stop  offset="0.3206" style="stop-color:#027F36"/>
				<stop  offset="0.9944" style="stop-color:#01913A"/>
				<stop  offset="1" style="stop-color:#01913A"/>
			</linearGradient>
			
				<rect x="587.37" y="128.93" style="clip-path:url(#SVGID_00000096757789303465597840000013003828065615312047_);fill:url(#SVGID_00000052820860995913347460000003301919264290856332_);" width="94.9" height="103.47"/>
		</g>
		<g>
			<defs>
				<path id="SVGID_00000139986265759824713490000011926211879492859570_" d="M720.6,201.85c0-9.61,8.57-15.26,19.02-15.26
					c8.57,0,16.93,3.14,21.32,8.99v12.54c-4.39,5.85-12.75,8.78-21.32,8.78C729.17,216.9,720.6,211.47,720.6,201.85 M699.28,144.79
					l10.45,18.6c8.36-7.73,18.39-11.92,29.05-11.92c13.38,0,22.16,6.69,22.16,16.93v12.75c-6.69-7.94-18.4-12.33-31.98-12.33
					c-16.09,0-34.91,8.78-34.91,32.61c0,22.58,18.81,33.44,34.91,33.44c13.17,0,25.08-4.81,31.98-13.17v10.66h26.76v-65.22
					c0-29.05-21.11-38.25-44.32-38.25C727.5,128.9,711.61,133.71,699.28,144.79"/>
			</defs>
			<clipPath id="SVGID_00000095321195545937537000000006562739229809126786_">
				<use xlink:href="#SVGID_00000139986265759824713490000011926211879492859570_"  style="overflow:visible;"/>
			</clipPath>
			
				<linearGradient id="SVGID_00000150088718807440239800000006928562425182900666_" gradientUnits="userSpaceOnUse" x1="-183.832" y1="741.6905" x2="-182.832" y2="741.6905" gradientTransform="matrix(0 -105.9786 -105.9786 0 79344.2344 -19247.3887)">
				<stop  offset="0" style="stop-color:#037534"/>
				<stop  offset="0.3206" style="stop-color:#027F36"/>
				<stop  offset="0.9944" style="stop-color:#01913A"/>
				<stop  offset="1" style="stop-color:#01913A"/>
			</linearGradient>
			
				<rect x="694.06" y="128.9" style="clip-path:url(#SVGID_00000095321195545937537000000006562739229809126786_);fill:url(#SVGID_00000150088718807440239800000006928562425182900666_);" width="93.65" height="105.98"/>
		</g>
		<g>
			<defs>
				<path id="SVGID_00000021834072672749137100000004486650172981518212_" d="M826.04,145.02v-13.59h-26.55V232.4h26.55v-66.68
					c4.39-6.48,16.1-11.5,24.88-11.5c3.14,0,5.44,0.21,7.32,0.63v-25.92C845.69,128.93,833.36,136.24,826.04,145.02"/>
			</defs>
			<clipPath id="SVGID_00000133501334925029084000000009397909183593036438_">
				<use xlink:href="#SVGID_00000021834072672749137100000004486650172981518212_"  style="overflow:visible;"/>
			</clipPath>
			
				<linearGradient id="SVGID_00000081619517409135905060000005295367721731226042_" gradientUnits="userSpaceOnUse" x1="-183.832" y1="741.6905" x2="-182.832" y2="741.6905" gradientTransform="matrix(0 -103.4707 -103.4707 0 77572.125 -18788.8379)">
				<stop  offset="0" style="stop-color:#037534"/>
				<stop  offset="0.3206" style="stop-color:#027F36"/>
				<stop  offset="0.9944" style="stop-color:#01913A"/>
				<stop  offset="1" style="stop-color:#01913A"/>
			</linearGradient>
			
				<rect x="799.49" y="128.93" style="clip-path:url(#SVGID_00000133501334925029084000000009397909183593036438_);fill:url(#SVGID_00000081619517409135905060000005295367721731226042_);" width="58.74" height="103.47"/>
		</g>
		<g>
			<defs>
				<path id="SVGID_00000087382164142496471140000008458607247837974432_" d="M240.05,181.47c0-14.83,12.03-26.86,26.86-26.86
					c14.83,0,26.86,12.03,26.86,26.86c0,14.84-12.03,26.86-26.86,26.86C252.07,208.33,240.05,196.31,240.05,181.47 M213.5,181.47
					c0,29.5,23.91,53.41,53.41,53.41c29.49,0,53.41-23.91,53.41-53.41c0-29.49-23.91-53.41-53.41-53.41
					C237.41,128.06,213.5,151.98,213.5,181.47"/>
			</defs>
			<clipPath id="SVGID_00000053545974642047943260000006613991833861116809_">
				<use xlink:href="#SVGID_00000087382164142496471140000008458607247837974432_"  style="overflow:visible;"/>
			</clipPath>
			
				<linearGradient id="SVGID_00000054239646911480082570000002541709637028510649_" gradientUnits="userSpaceOnUse" x1="-183.832" y1="741.6906" x2="-182.832" y2="741.6906" gradientTransform="matrix(0 -106.8152 -106.8152 0 79490.7656 -19401.1836)">
				<stop  offset="0" style="stop-color:#037534"/>
				<stop  offset="0.3206" style="stop-color:#027F36"/>
				<stop  offset="0.9944" style="stop-color:#01913A"/>
				<stop  offset="1" style="stop-color:#01913A"/>
			</linearGradient>
			
				<rect x="213.5" y="128.06" style="clip-path:url(#SVGID_00000053545974642047943260000006613991833861116809_);fill:url(#SVGID_00000054239646911480082570000002541709637028510649_);" width="106.81" height="106.81"/>
		</g>
		<g>
			<defs>
				<path id="SVGID_00000038384291105045687820000002928411173572436119_" d="M888.9,181.47c0-14.83,12.03-26.86,26.86-26.86
					s26.86,12.03,26.86,26.86c0,14.84-12.03,26.86-26.86,26.86S888.9,196.31,888.9,181.47 M862.35,181.47
					c0,29.5,23.91,53.41,53.41,53.41s53.41-23.91,53.41-53.41c0-29.49-23.91-53.41-53.41-53.41S862.35,151.98,862.35,181.47"/>
			</defs>
			<clipPath id="SVGID_00000116224573478570917730000009539612536347009962_">
				<use xlink:href="#SVGID_00000038384291105045687820000002928411173572436119_"  style="overflow:visible;"/>
			</clipPath>
			
				<linearGradient id="SVGID_00000181080436331803155830000005871995760603518902_" gradientUnits="userSpaceOnUse" x1="-183.832" y1="741.6905" x2="-182.832" y2="741.6905" gradientTransform="matrix(0 -106.8152 -106.8152 0 80139.6172 -19401.1836)">
				<stop  offset="0" style="stop-color:#037534"/>
				<stop  offset="0.3206" style="stop-color:#027F36"/>
				<stop  offset="0.9944" style="stop-color:#01913A"/>
				<stop  offset="1" style="stop-color:#01913A"/>
			</linearGradient>
			
				<rect x="862.35" y="128.06" style="clip-path:url(#SVGID_00000116224573478570917730000009539612536347009962_);fill:url(#SVGID_00000181080436331803155830000005871995760603518902_);" width="106.81" height="106.81"/>
		</g>
		<g>
			<defs>
				<path id="SVGID_00000042003356606270288270000003610162770726138556_" d="M374,160.67c0,39.72,59.78,26.13,59.78,42.64
					c0,6.27-5.43,10.66-16.93,10.66c-12.54,0-27.38-6.9-34.91-14.01l-11.5,19.23c10.66,9.82,27.59,15.68,45.15,15.68
					c28.01,0,43.9-13.59,43.9-32.19c0-40.76-59.99-28.22-59.99-43.06c0-5.64,6.27-9.83,15.89-9.83c9.88,0,19.21,3.49,25.65,8.1
					c4.8-5.41,9.54-10.61,14.3-15.66c-9.97-7.71-23.35-13.33-39.95-13.33C388.63,128.9,374,143.74,374,160.67"/>
			</defs>
			<clipPath id="SVGID_00000069382476920803917960000015345017717977345944_">
				<use xlink:href="#SVGID_00000042003356606270288270000003610162770726138556_"  style="overflow:visible;"/>
			</clipPath>
			
				<linearGradient id="SVGID_00000072251507761029838010000016035924272610170536_" gradientUnits="userSpaceOnUse" x1="-183.832" y1="741.6906" x2="-182.832" y2="741.6906" gradientTransform="matrix(0 -105.9786 -105.9786 0 79018.3203 -19247.3887)">
				<stop  offset="0" style="stop-color:#037534"/>
				<stop  offset="0.3206" style="stop-color:#027F36"/>
				<stop  offset="0.9944" style="stop-color:#01913A"/>
				<stop  offset="1" style="stop-color:#01913A"/>
			</linearGradient>
			
				<rect x="370.44" y="128.9" style="clip-path:url(#SVGID_00000069382476920803917960000015345017717977345944_);fill:url(#SVGID_00000072251507761029838010000016035924272610170536_);" width="89.05" height="105.98"/>
		</g>
		<g>
			<path class="st11" d="M470,192.9c0.66,3.03,1.58,5.96,2.72,8.77c35.53-31.16,76.76-36.18,100.46-36.03
				c-2.58-8.33-7.15-15.78-13.14-21.81C502.52,151.59,474.42,186.87,470,192.9"/>
			<path class="st12" d="M572.43,163.43c0.13,0.35,0.25,0.71,0.37,1.06C572.68,164.13,572.56,163.78,572.43,163.43"/>
			<path class="st12" d="M571.3,160.56c0.14,0.33,0.28,0.66,0.41,0.99C571.58,161.22,571.44,160.89,571.3,160.56"/>
			<path class="st12" d="M565.8,150.69c-0.02-0.03-0.03-0.05-0.05-0.08l0,0C565.76,150.64,565.78,150.66,565.8,150.69"/>
			<path class="st12" d="M570.03,157.8c0.15,0.3,0.29,0.59,0.43,0.89C570.33,158.4,570.18,158.1,570.03,157.8"/>
			<path class="st12" d="M567.11,152.64c0.13,0.21,0.27,0.41,0.4,0.61C567.37,153.05,567.24,152.85,567.11,152.64"/>
			<path class="st12" d="M568.62,155.15c0.15,0.26,0.29,0.51,0.44,0.78C568.92,155.67,568.77,155.41,568.62,155.15"/>
			<path class="st12" d="M573.16,165.64c-23.33-0.14-63.59,4.75-98.71,34.57c7.96-6.46,43.27-31.93,100.41-27.46
				C574.46,170.32,573.88,167.95,573.16,165.64"/>
			<polygon class="st13" points="191.97,340.12 169.46,285.11 174.9,285.11 194.86,334.84 214.9,285.11 220.34,285.11 
				197.83,340.12 			"/>
			<path class="st13" d="M224.71,290.72c0-1.81,1.57-3.22,3.3-3.22c1.82,0,3.3,1.4,3.3,3.22s-1.48,3.3-3.3,3.3
				C226.28,294.02,224.71,292.53,224.71,290.72 M225.86,300.29h4.29v39.83h-4.29V300.29z"/>
			<path class="st13" d="M238.81,320.16c0-11.63,7.67-20.86,19.38-20.86c6.93,0,10.89,2.72,14.1,6.76l-2.97,2.64
				c-2.89-3.96-6.52-5.52-10.89-5.52c-9.32,0-15.01,7.42-15.01,16.99c0,9.57,5.69,17.07,15.01,17.07c4.37,0,8-1.65,10.89-5.61
				l2.97,2.64c-3.22,4.12-7.17,6.85-14.1,6.85C246.48,341.11,238.81,331.79,238.81,320.16"/>
			<path class="st13" d="M277.16,320.16c0-11.55,8.16-20.87,19.22-20.87c12.12,0,18.81,9.65,18.81,21.11v1.15h-33.32
				c0.41,8.66,6.19,15.83,15.59,15.83c5.03,0,9.65-1.9,13.03-5.53l2.23,2.8c-3.96,4.12-8.99,6.43-15.59,6.43
				C285.49,341.11,277.16,332.45,277.16,320.16 M296.29,303.01c-9.4,0-14.1,8.25-14.43,15.18h28.95
				C310.72,311.42,306.27,303.01,296.29,303.01"/>
			<path class="st13" d="M346.11,342.51v-70.49h37.1c13.42,0,20.29,8.56,20.29,17.97c0,8.77-5.5,14.8-12.16,16.17
				c7.61,1.16,13.53,8.45,13.53,17.23c0,10.67-6.98,19.13-20.51,19.13H346.11z M388.17,292.62c0-4.33-3.17-7.4-8.24-7.4h-18.81v14.8
				h18.81C385,300.02,388.17,297.16,388.17,292.62 M389.55,321.26c0-4.44-3.17-8.03-8.98-8.03h-19.45v16.07h19.45
				C386.16,329.3,389.55,326.34,389.55,321.26"/>
			<path class="st13" d="M412.79,342.51v-51.05h13.42v6.87c3.7-4.44,9.93-8.14,16.28-8.14v13.1c-0.95-0.21-2.11-0.32-3.7-0.32
				c-4.44,0-10.36,2.54-12.58,5.81v33.71H412.79z"/>
			<path class="st13" d="M478.42,342.51v-5.39c-3.49,4.23-9.51,6.66-16.17,6.66c-8.14,0-17.65-5.49-17.65-16.91
				c0-12.05,9.51-16.49,17.65-16.49c6.87,0,12.79,2.22,16.17,6.24v-6.45c0-5.18-4.44-8.56-11.2-8.56c-5.39,0-10.46,2.12-14.69,6.03
				l-5.28-9.41c6.23-5.6,14.27-8.03,22.3-8.03c11.73,0,22.41,4.65,22.41,19.34v32.98H478.42z M478.42,330.25v-6.34
				c-2.22-2.96-6.45-4.54-10.78-4.54c-5.28,0-9.62,2.85-9.62,7.71s4.33,7.61,9.62,7.61C471.97,334.68,476.2,333.21,478.42,330.25"/>
			<path class="st13" d="M501.03,355.61l6.02-9.62c4.12,4.44,9.62,6.24,15.96,6.24c6.45,0,14.16-2.75,14.16-13.11v-4.97
				c-4.02,5.07-9.51,7.92-15.85,7.92c-12.68,0-22.51-8.88-22.51-25.89c0-16.7,9.62-26,22.51-26c6.13,0,11.73,2.54,15.85,7.82v-6.55
				h13.42v47.67c0,19.34-15.01,24.1-27.58,24.1C514.35,363.22,507.48,361.21,501.03,355.61 M537.18,324.43v-16.59
				c-2.33-3.28-7.19-5.71-11.52-5.71c-7.71,0-13,5.28-13,14.06c0,8.77,5.29,14.05,13,14.05
				C529.99,330.25,534.85,327.71,537.18,324.43"/>
			<path class="st13" d="M591.49,342.51v-5.39c-3.49,4.23-9.51,6.66-16.17,6.66c-8.14,0-17.65-5.49-17.65-16.91
				c0-12.05,9.51-16.49,17.65-16.49c6.87,0,12.79,2.22,16.17,6.24v-6.45c0-5.18-4.44-8.56-11.2-8.56c-5.39,0-10.46,2.12-14.69,6.03
				l-5.28-9.41c6.24-5.6,14.27-8.03,22.3-8.03c11.73,0,22.41,4.65,22.41,19.34v32.98H591.49z M591.49,330.25v-6.34
				c-2.22-2.96-6.45-4.54-10.78-4.54c-5.28,0-9.62,2.85-9.62,7.71s4.33,7.61,9.62,7.61C585.05,334.68,589.27,333.21,591.49,330.25"
				/>
			<polygon class="st13" points="688.19,342.51 654.58,296.53 654.58,342.51 639.57,342.51 639.57,272.01 655,272.01 687.66,316.29 
				687.66,272.01 702.67,272.01 702.67,342.51 			"/>
			<path class="st13" d="M709.95,316.93c0-14.79,10.99-26.74,26.42-26.74c15.32,0,25.58,11.41,25.58,28.01v3.17h-37.94
				c0.95,6.24,6.03,11.41,14.69,11.41c4.33,0,10.25-1.8,13.53-4.97l6.02,8.88c-5.07,4.65-13.1,7.08-21.03,7.08
				C721.69,343.77,709.95,333.31,709.95,316.93 M736.38,301.18c-8.35,0-11.94,5.81-12.47,10.89h25.15
				C748.64,307.21,745.25,301.18,736.38,301.18"/>
			<path class="st13" d="M771.35,329.72v-26.53h-8.46v-11.73h8.46v-13.95h13.42v13.95h10.36v11.73h-10.36v22.93
				c0,3.28,1.69,5.71,4.65,5.71c2.01,0,3.91-0.74,4.65-1.58l2.85,10.25c-2.01,1.8-5.6,3.28-11.2,3.28
				C776.32,343.77,771.35,338.91,771.35,329.72"/>
			<path class="st13" d="M806.06,329.72v-26.53h-8.46v-11.73h8.46v-13.95h13.42v13.95h10.36v11.73h-10.36v22.93
				c0,3.28,1.69,5.71,4.65,5.71c2.01,0,3.91-0.74,4.65-1.58l2.85,10.25c-2.01,1.8-5.6,3.28-11.2,3.28
				C811.03,343.77,806.06,338.91,806.06,329.72"/>
			<path class="st13" d="M832.69,316.93c0-14.48,10.15-26.74,26.95-26.74c16.91,0,27.06,12.26,27.06,26.74
				c0,14.48-10.15,26.84-27.06,26.84C842.83,343.77,832.69,331.41,832.69,316.93 M872.74,316.93c0-7.93-4.65-14.79-13.11-14.79
				c-8.35,0-13,6.87-13,14.79c0,8.03,4.65,14.9,13,14.9C868.09,331.83,872.74,324.96,872.74,316.93"/>
		</g>
	</g>
	<path class="st14" d="M1097.34,286.05h114.77v56.43H992.9v-53.31l3.77-2.85c106.41-80.53,150.45-113.86,150.45-151.76
		c0-27.71-24.61-37.54-45.68-37.54c-29,0-54.06,11.12-72.48,32.17l-4.61,5.27l-37.25-42.18l3.37-4.05
		c25.01-30.09,66.17-48.06,110.11-48.06c29.49,0,56.61,8.55,76.36,24.07c21.89,17.21,33.46,41.52,33.46,70.33
		C1210.39,186.35,1167.53,231.68,1097.34,286.05 M1350.59,286.05c70.19-54.37,113.05-99.7,113.05-151.49
		c0-28.8-11.57-53.12-33.46-70.33c-19.75-15.52-46.87-24.07-76.36-24.07c-43.94,0-85.11,17.97-110.11,48.06l-3.37,4.05l37.25,42.18
		l4.61-5.27c18.41-21.05,43.48-32.17,72.48-32.17c21.08,0,45.68,9.83,45.68,37.54c0,37.9-44.04,71.23-150.45,151.76l-3.76,2.85
		v53.31h219.21v-56.43H1350.59z"/>
	<path class="st13" d="M230.11,69.71V40.83h14.46c6.49,0,10.05,4.37,10.05,9.61c0,5.2-3.55,9.57-10.05,9.57h-7.01v9.7H230.11z
		 M247.04,50.44c0-1.99-1.6-3.12-3.59-3.12h-5.89v6.19h5.89C245.44,53.52,247.04,52.39,247.04,50.44"/>
	<path class="st13" d="M312.15,69.71l-4.85-9.7h-3.81v9.7h-7.45V40.83h14.46c6.41,0,10.05,4.24,10.05,9.61
		c0,5.02-3.03,7.71-5.76,8.66l5.89,10.61H312.15z M312.97,50.4c0-1.99-1.6-3.07-3.59-3.07h-5.89v6.19h5.89
		C311.37,53.52,312.97,52.43,312.97,50.4"/>
	<polygon class="st13" points="362.09,69.71 362.09,40.83 383.27,40.83 383.27,47.33 369.54,47.33 369.54,51.83 382.96,51.83 
		382.96,58.32 369.54,58.32 369.54,63.22 383.27,63.22 383.27,69.71 	"/>
	<path class="st13" d="M424.68,65.64l3.94-5.8c2.08,2.08,5.28,3.81,9.27,3.81c2.51,0,4.07-0.87,4.07-2.29
		c0-3.81-16.32-0.65-16.32-11.78c0-4.85,4.07-9.18,11.47-9.18c4.63,0,8.66,1.39,11.74,4.03l-4.07,5.59
		c-2.42-2.04-5.59-3.03-8.44-3.03c-2.16,0-3.12,0.74-3.12,1.99c0,3.55,16.33,0.87,16.33,11.6c0,5.8-4.29,9.66-12.04,9.66
		C431.66,70.23,427.59,68.37,424.68,65.64"/>
	<rect x="490.96" y="40.83" class="st13" width="7.45" height="28.88"/>
	<path class="st13" d="M539.82,69.71V40.83h12.12c9.09,0,15.63,5.46,15.63,14.42c0,8.96-6.54,14.46-15.59,14.46H539.82z
		 M559.96,55.25c0-4.46-2.69-7.92-7.97-7.92h-4.72v15.89h4.68C557.01,63.22,559.96,59.54,559.96,55.25"/>
	<polygon class="st13" points="608.99,69.71 608.99,40.83 630.17,40.83 630.17,47.33 616.44,47.33 616.44,51.83 629.86,51.83 
		629.86,58.32 616.44,58.32 616.44,63.22 630.17,63.22 630.17,69.71 	"/>
	<polygon class="st13" points="691.24,69.71 679.03,53 679.03,69.71 671.59,69.71 671.59,40.83 679.25,40.83 690.94,56.72 
		690.94,40.83 698.43,40.83 698.43,69.71 	"/>
	<polygon class="st13" points="747.95,69.71 747.95,47.33 739.85,47.33 739.85,40.83 763.45,40.83 763.45,47.33 755.39,47.33 
		755.39,69.71 	"/>
	<polygon class="st13" points="804.87,69.71 804.87,40.83 826.04,40.83 826.04,47.33 812.31,47.33 812.31,51.83 825.74,51.83 
		825.74,58.32 812.31,58.32 812.31,63.22 826.04,63.22 826.04,69.71 	"/>
</g>
</svg>
